<?xml version="1.0" encoding="utf-8"?>
<!-- Generator: Adobe Illustrator 19.0.0, SVG Export Plug-In . SVG Version: 6.00 Build 0)  -->
<svg version="1.1" id="Layer_1" xmlns="http://www.w3.org/2000/svg" xmlns:xlink="http://www.w3.org/1999/xlink" x="0px" y="0px"
	 viewBox="0 0 79.2 73.6" style="enable-background:new 0 0 79.2 73.6;" xml:space="preserve">
<style type="text/css">
	.st0{clip-path:url(#SVGID_2_);fill:#fff;}
</style>
<g>
	<defs>
		<rect id="SVGID_1_" y="0" width="79.2" height="73.6"/>
	</defs>
	<clipPath id="SVGID_2_">
		<use xlink:href="#SVGID_1_"  style="overflow:visible;"/>
	</clipPath>
	<path class="st0" d="M36,37.4L16.7,26.6c0.2-1.1,0.5-2.1,0.7-2.9c0.1,0,0.2,0,0.3,0c3.5,0,6.6-1.9,8.3-4.6l12.9-5.7V7.3H37v4.9
		l-9.8,4.3c0.2-0.8,0.4-1.7,0.4-2.6c0-5.4-4.4-9.8-9.8-9.8c-1,0-1.9,0.2-2.8,0.5c-0.3-1-0.8-2-1.6-2.8c-1-1-2.3-1.6-3.6-1.7
		C8.3-0.1,7.1,0.3,6.2,1.2C4.4,3,4.6,6.2,6.7,8.3c0.6,0.6,1.4,1,2.2,1.3c-0.6,1.3-1,2.7-1,4.2c0,2.2,0.8,4.2,2,5.9
		C9,21.2,6.4,25.3,5,28.6c-1.3,3.1-5.3,16.5-5,19.8c0.2,1.6,1.5,3.7,3,6.1c1.4,2.3,3,4.8,3.2,6.5l0.1,0.9h3v11.6h5.9v-1.9h-4v-9.7
		h5.5v11.6h5.9v-1.9h-4v-9.7h5l-0.1-1c0-0.5-0.8-11.9-6.1-17.5c-2.6-2.8-2.2-9.4-1.2-14.8L33.1,38c-1.7,0.9-2.9,2.7-2.9,4.8h1.9
		c0-1.9,1.6-3.5,3.5-3.5c1.9,0,3.5,1.6,3.5,3.5v29.5h1.9V42.8C41.1,39.9,38.8,37.6,36,37.4 M25.6,13.9c0,4.3-3.5,7.9-7.9,7.9
		c-2.3,0-4.3-1-5.7-2.5c1.9-0.1,3.8-0.6,5.6-1.5c3.5-1.8,6-4.9,6.7-8.2C25.1,10.8,25.6,12.3,25.6,13.9 M8.1,7
		C6.7,5.6,6.5,3.6,7.5,2.6C8,2.1,8.7,1.9,9.5,2c0.9,0.1,1.7,0.5,2.4,1.2c0.6,0.6,1,1.4,1.1,2.2C11.8,6,10.7,6.9,9.9,8
		C9.2,7.8,8.6,7.5,8.1,7 M17.7,6c1.9,0,3.6,0.7,4.9,1.8c-0.1,3.2-2.5,6.5-5.9,8.3c-1.9,1-4.1,1.4-6.1,1.3c-0.5-1-0.8-2.2-0.8-3.4
		C9.8,9.6,13.4,6,17.7,6 M16.1,44.7c3.9,4.2,5.1,12.4,5.4,15.3H7.9c-0.5-1.9-1.9-4.2-3.3-6.4c-1.3-2-2.6-4.1-2.7-5.3
		c-0.3-2.6,3.3-15.2,4.9-18.9c1.2-2.9,3.4-6.5,4.4-8.1c1.2,1,2.6,1.8,4.2,2.2c-0.2,0.6-0.3,1.3-0.5,2.2l-0.4-0.2l-1,1.7l0.9,0.5
		C13.4,33.1,12.7,41,16.1,44.7"/>
	<path class="st0" d="M75.4,47.5h3.8l-0.1-1C78.1,34.4,71,24,68.9,21.1c2-1.8,3.2-4.4,3.2-7.2c0-5.4-4.4-9.8-9.8-9.8
		c-5.4,0-9.8,4.4-9.8,9.8c0,0.9,0.2,1.8,0.4,2.6l-9.8-4.3V7.3h-1.9v6.1l12.9,5.7c1.3,2.1,3.5,3.7,6,4.3c0.4,2.9,0.6,6.8,0.9,10.5
		l-1.1,1.8l-10.3,1.6l0,0c-2.9,0.1-5.3,2.5-5.3,5.4v29.5h1.9V42.8c0-1.9,1.6-3.5,3.5-3.5c1.9,0,3.5,1.6,3.5,3.5h1.9
		c0-1.6-0.7-3-1.8-4l7.8-1.2l0,0c0.2,5,0.3,9,0.3,9.1l0,0.9h2.8v19.9h0.7v3.9h-3.3v1.9h5.2v-5.8h4.1v3.9h-3.3v1.9h5.2v-5.8h2.5V47.5
		z M62.4,6c4.3,0,7.9,3.5,7.9,7.9c0,1.1-0.2,2.2-0.7,3.1l-5.4-6.2l-0.5,0.1c-2.3,0.3-5.8-1-7.5-1.8C57.6,7.2,59.8,6,62.4,6
		 M54.5,13.9c0-1.1,0.2-2.2,0.7-3.1c1.7,0.8,5.4,2.3,8.2,2.1l5.2,5.9c-1.4,1.8-3.7,3-6.2,3C58,21.8,54.5,18.2,54.5,13.9 M62.9,34.4
		l3.9-6.7l-1.7-1l-2.4,4.1c-0.2-2.6-0.4-5.1-0.6-7.2c0.1,0,0.2,0,0.3,0c1.8,0,3.5-0.5,5-1.4c1.9,2.6,8.5,12.2,9.7,23.3H63.3
		C63.3,43.7,63.1,39.2,62.9,34.4 M69.2,65.5l0.2-14.3l-1.9,0l-0.2,14.3h-1.2v-18h7.3v18H69.2z"/>
</g>
</svg>
