<?xml version="1.0" encoding="utf-8"?>
<!-- Generator: Adobe Illustrator 19.0.0, SVG Export Plug-In . SVG Version: 6.00 Build 0)  -->
<svg version="1.1" id="Layer_1" xmlns="http://www.w3.org/2000/svg" xmlns:xlink="http://www.w3.org/1999/xlink" x="0px" y="0px"
	 viewBox="0 0 30.6 40.3" style="enable-background:new 0 0 30.6 40.3;" xml:space="preserve">
<style type="text/css">
	.st0{fill:#FFFFFF;}
	.st1{fill:none;stroke:#FF671B;stroke-width:1.25;stroke-linecap:round;stroke-linejoin:round;stroke-miterlimit:10;}
	.st2{fill:#FF8C69;}
	
		.st3{clip-path:url(#SVGID_2_);fill:none;stroke:#FF671B;stroke-width:1.25;stroke-linecap:round;stroke-linejoin:round;stroke-miterlimit:10;}
	
		.st4{clip-path:url(#SVGID_4_);fill:none;stroke:#FF671B;stroke-width:1.25;stroke-linecap:round;stroke-linejoin:round;stroke-miterlimit:10;}
	
		.st5{clip-path:url(#SVGID_6_);fill:none;stroke:#FF671B;stroke-width:1.25;stroke-linecap:round;stroke-linejoin:round;stroke-miterlimit:10;}
	
		.st6{clip-path:url(#SVGID_8_);fill:none;stroke:#FF671B;stroke-width:1.25;stroke-linecap:round;stroke-linejoin:round;stroke-miterlimit:10;}
</style>
<polygon class="st0" points="27.4,27.3 14,35 14,25.4 19.1,22.5 "/>
<polygon class="st1" points="27.4,27.3 14,35 14,25.4 19.1,22.5 "/>
<polygon class="st2" points="0.6,33.1 11.3,39.7 11.3,18.1 0.6,11.5 "/>
<g>
	<defs>
		<rect id="SVGID_1_" y="0" width="30.6" height="40.3"/>
	</defs>
	<clipPath id="SVGID_2_">
		<use xlink:href="#SVGID_1_"  style="overflow:visible;"/>
	</clipPath>
	<polygon class="st3" points="0.6,33.1 0.6,11.5 11.3,18.1 11.3,39.7 	"/>
</g>
<polygon class="st0" points="19.3,22.5 30,28.7 30,7.2 19.3,0.6 "/>
<g>
	<defs>
		<rect id="SVGID_3_" y="0" width="30.6" height="40.3"/>
	</defs>
	<clipPath id="SVGID_4_">
		<use xlink:href="#SVGID_3_"  style="overflow:visible;"/>
	</clipPath>
	<polygon class="st4" points="19.3,22.5 19.3,0.6 30,7.2 30,28.7 	"/>
</g>
<path class="st0" d="M14.6,20.2l12.1-7v13.4l-12.1,7V20.2z M11.3,18.1v21.6L30,28.9V7.2L11.3,18.1z"/>
<g>
	<defs>
		<rect id="SVGID_5_" y="0" width="30.6" height="40.3"/>
	</defs>
	<clipPath id="SVGID_6_">
		<use xlink:href="#SVGID_5_"  style="overflow:visible;"/>
	</clipPath>
	<path class="st5" d="M11.3,18.1v21.6L30,28.9V7.2L11.3,18.1z M26.7,26.7l-12.1,7V20.2l12.1-7V26.7z"/>
</g>
<polygon class="st2" points="0.6,11.5 11.3,18.1 30,7.2 19.3,0.6 "/>
<g>
	<defs>
		<rect id="SVGID_7_" y="0" width="30.6" height="40.3"/>
	</defs>
	<clipPath id="SVGID_8_">
		<use xlink:href="#SVGID_7_"  style="overflow:visible;"/>
	</clipPath>
	<polygon class="st6" points="0.6,11.5 19.3,0.6 30,7.2 11.3,18.1 	"/>
</g>
</svg>
