<?xml version="1.0" encoding="utf-8"?>
<!-- Generator: Adobe Illustrator 19.0.0, SVG Export Plug-In . SVG Version: 6.00 Build 0)  -->
<svg version="1.1" id="Layer_1" xmlns="http://www.w3.org/2000/svg" xmlns:xlink="http://www.w3.org/1999/xlink" x="0px" y="0px"
	 viewBox="0 0 168.5 170" style="enable-background:new 0 0 168.5 170;" xml:space="preserve">
<style type="text/css">
	.st0{stroke:#fc671a;stroke-width:2.5;stroke-miterlimit:10;fill: #fc671a;}
</style>
<g>
	<g>
		<g>
			<g>
				<path class="st0" d="M88.8,142.6H29c-1.3,0-2.4-1.1-2.4-2.4V29.3c0-1.3,1.1-2.4,2.4-2.4H140c1.3,0,2.4,1.1,2.4,2.4v60.2
					c0,1.3-1.1,2.4-2.4,2.4H91.2v48.3C91.2,141.6,90.2,142.6,88.8,142.6z M31.4,137.8h55V89.5c0-1.3,1.1-2.4,2.4-2.4h48.7V31.7H31.4
					V137.8z"/>
			</g>
		</g>
		<g>
			<g>
				<path class="st0" d="M84.5,65.2h-24c-1.3,0-2.4-1.1-2.4-2.4c0-1.3,1.1-2.4,2.4-2.4h21.6V29.3c0-1.3,1.1-2.4,2.4-2.4
					s2.4,1.1,2.4,2.4v33.5C86.9,64.1,85.8,65.2,84.5,65.2z"/>
			</g>
		</g>
		<g>
			<g>
				<path class="st0" d="M60.5,115.9c-1.3,0-2.4-1.1-2.4-2.4v-21H29c-1.3,0-2.4-1.1-2.4-2.4c0-1.3,1.1-2.4,2.4-2.4h31.5
					c1.3,0,2.4,1.1,2.4,2.4v23.4C62.9,114.8,61.8,115.9,60.5,115.9z"/>
			</g>
		</g>
		<g>
			<g>
				<path class="st0" d="M140,65.2h-27.7c-1.3,0-2.4-1.1-2.4-2.4c0-1.3,1.1-2.4,2.4-2.4H140c1.3,0,2.4,1.1,2.4,2.4
					C142.4,64.1,141.3,65.2,140,65.2z"/>
			</g>
		</g>
	</g>
	<g>
		<g>
			<path class="st0" d="M72.5,9.6c-1.3,0-2.4-1.1-2.4-2.4s1-2.4,2.4-2.4h0.1c1.3,0,2.4,1.1,2.4,2.4S73.8,9.6,72.5,9.6z"/>
		</g>
	</g>
	<g>
		<g>
			<path class="st0" d="M128.8,164.7H6.9c-1.3,0-2.4-1.1-2.4-2.4V69.2c0-1.3,1.1-2.4,2.4-2.4s2.4,1.1,2.4,2.4v90.7h118.5l31.9-31.9
				V9.6H85.1c-1.3,0-2.4-1.1-2.4-2.4s1.1-2.4,2.4-2.4h77c1.3,0,2.4,1.1,2.4,2.4V129c0,0.6-0.3,1.2-0.7,1.7L130.5,164
				C130,164.5,129.4,164.7,128.8,164.7z"/>
		</g>
	</g>
	<g>
		<g>
			<path class="st0" d="M6.9,53.3c-1.3,0-2.4-1.1-2.4-2.4V7.2c0-1.3,1.1-2.4,2.4-2.4h52.8c1.3,0,2.4,1.1,2.4,2.4S61,9.6,59.7,9.6
				H9.3v41.3C9.3,52.2,8.2,53.3,6.9,53.3z"/>
		</g>
	</g>
	<g>
		<g>
			<path class="st0" d="M128.8,164.7c-1.3,0-2.4-1.1-2.4-2.4V129c0-1.3,1.1-2.4,2.4-2.4c1.3,0,2.4,1.1,2.4,2.4v33.3
				C131.2,163.6,130.1,164.7,128.8,164.7z"/>
		</g>
	</g>
	<g>
		<g>
			<path class="st0" d="M162.1,131.4h-33.3c-1.3,0-2.4-1.1-2.4-2.4s1.1-2.4,2.4-2.4h33.3c1.3,0,2.4,1.1,2.4,2.4
				S163.4,131.4,162.1,131.4z"/>
		</g>
	</g>
</g>
</svg>
