<?xml version="1.0" encoding="utf-8"?>
<!-- Generator: Adobe Illustrator 19.0.0, SVG Export Plug-In . SVG Version: 6.00 Build 0)  -->
<svg version="1.1" id="Layer_1" xmlns="http://www.w3.org/2000/svg" xmlns:xlink="http://www.w3.org/1999/xlink" x="0px" y="0px"
	 viewBox="0 0 92.8 94.8" style="enable-background:new 0 0 92.8 94.8;" xml:space="preserve">
<style type="text/css">
	.st0{clip-path:url(#SVGID_2_);fill:#FFFFFF;}
	.st1{fill:#FFFFFF;stroke:#FFFFFF;stroke-miterlimit:10;}
</style>
<g>
	<defs>
		<line id="SVGID_1_" x1="0" y1="0" x2="92.8" y2="0"/>
	</defs>
	<clipPath id="SVGID_2_">
		<use xlink:href="#SVGID_1_"  style="overflow:visible;"/>
	</clipPath>
	<path class="st0" d="M76.1,0c-10,0-20,0-30,0c-9.8,0-19.6,0-29.3,0"/>
</g>
<path class="st1" d="M85.4,8.4c-1.3-1.3-3.1-1.6-4.7-0.9l0,0L8.9,37.1c-1.7,0.7-2.8,2.4-2.7,4.3c0.1,1.9,1.4,3.4,3.2,3.9l30.1,7.6
	c0.2,0.1,0.4,0.1,0.6,0.3c0.1,0.1,0.1,0.2,0.2,0.3s0.2,0.2,0.3,0.2c0.1,0.2,0.2,0.4,0.3,0.6l7.6,30.1c0.5,1.8,2,3.1,3.9,3.2
	c0.1,0,0.2,0,0.3,0c1.8,0,3.3-1,4-2.7l29.6-71.8C87,11.5,86.6,9.7,85.4,8.4z M40.2,50.5l-30.1-7.6c-1-0.2-1.4-1-1.4-1.7
	c0-0.7,0.2-1.5,1.2-1.9L81.6,9.7l0,0c0.3-0.1,0.6-0.2,0.9-0.1L41.2,50.9C40.9,50.7,40.5,50.6,40.2,50.5z M84,12.2L54.5,84
	c-0.4,0.9-1.2,1.2-1.9,1.2c-0.7,0-1.4-0.4-1.7-1.4l-7.6-30.1c-0.1-0.4-0.2-0.7-0.4-1l41.3-41.3C84.2,11.6,84.2,11.9,84,12.2z"/>
</svg>
