<?xml version="1.0" encoding="utf-8"?>
<!-- Generator: Adobe Illustrator 19.0.0, SVG Export Plug-In . SVG Version: 6.00 Build 0)  -->
<svg version="1.1" id="Layer_1" xmlns="http://www.w3.org/2000/svg" xmlns:xlink="http://www.w3.org/1999/xlink" x="0px" y="0px"
	 viewBox="0 0 92.8 94.8" style="enable-background:new 0 0 92.8 94.8;" xml:space="preserve">
<style type="text/css">
	.st0{clip-path:url(#SVGID_2_);fill:#FFFFFF;}
</style>
<g>
	<defs>
		<rect id="SVGID_1_" y="0" width="92.8" height="94.8"/>
	</defs>
	<clipPath id="SVGID_2_">
		<use xlink:href="#SVGID_1_"  style="overflow:visible;"/>
	</clipPath>
	<path class="st0" d="M92.3,10.3c-0.5-0.6-1.2-1-2-1c-1.4,0-9.1,0-13.8,0l2-6c0.3-0.8,0.1-1.6-0.4-2.2c-0.5-0.7-1.2-1-2-1
		c-10,0-20,0-30,0c-9.8,0-19.6,0-29.3,0c-0.8,0-1.6,0.4-2,1c-0.5,0.6-0.6,1.5-0.4,2.2c0.7,2,1.3,4,2,6c-4.8,0-12.5,0-13.8,0
		c-0.8,0-1.5,0.3-2,1c-0.5,0.6-0.6,1.4-0.5,2.1C2.6,22.8,5.4,32,9.2,39.7c3.9,7.7,8.9,14,15.8,18.3c2.6,1.6,5.5,3,8.6,4.1
		c0.1,0,0.1,0.1,0.1,0.1c0.7,2.2,1.4,4.4,2.2,6.6c0,0,0,0.1-0.1,0.1h-2.5c-1.2,0-2.2,0.8-2.4,1.9l-4.8,20.8c-0.2,0.7,0,1.5,0.5,2.1
		c0.5,0.6,1.2,0.9,2,0.9h35.7c0.8,0,1.5-0.4,2-0.9c0.5-0.6,0.6-1.4,0.5-2.1l-4.8-20.8c-0.3-1.1-1.3-1.9-2.4-1.9H57
		c-0.1,0-0.1-0.1-0.1-0.1c0.7-2.2,1.4-4.4,2.2-6.6c0-0.1,0.1-0.1,0.1-0.1c3.1-1.1,6-2.4,8.6-4.1c6.9-4.4,11.9-10.6,15.8-18.3
		c3.9-7.7,6.7-16.9,9.2-27.3C92.9,11.7,92.8,10.9,92.3,10.3 M31.6,55.9c-1.4-0.6-2.7-1.3-3.9-2.1c-6-3.8-10.4-9.2-14-16.4
		c-3.2-6.4-5.7-14.1-8-23c0,0,0-0.1,0.1-0.1c1.6,0,9.1,0,12.2,0C22.5,28.2,27.1,42,31.6,55.9C31.6,55.9,31.6,55.9,31.6,55.9
		 M57.4,74c0.1,0,0.1,0,0.1,0.1l3.6,15.6c0,0,0,0.1-0.1,0.1H31.8c0,0-0.1,0-0.1-0.1l3.6-15.6c0-0.1,0.1-0.1,0.1-0.1H57.4z
		 M51.7,68.9c0,0-0.1,0.1-0.1,0.1H41.3c0,0-0.1,0-0.1-0.1c-7-21.3-14-42.6-21-63.9c0,0,0-0.1,0.1-0.1c8.6,0,17.2,0,25.8,0
		c8.8,0,17.6,0,26.5,0c0,0,0.1,0,0.1,0.1C65.6,26.4,58.6,47.6,51.7,68.9 M79.1,37.4c-3.6,7.1-8,12.6-14,16.4
		c-1.2,0.8-2.5,1.5-3.9,2.1c0,0,0,0,0-0.1c4.5-13.8,9.1-27.7,13.6-41.5c3.1,0,10.6,0,12.2,0c0.1,0,0.1,0.1,0.1,0.1
		C84.9,23.3,82.4,31.1,79.1,37.4"/>
</g>
</svg>
