<?xml version="1.0" encoding="utf-8"?>
<!-- Generator: Adobe Illustrator 19.0.0, SVG Export Plug-In . SVG Version: 6.00 Build 0)  -->
<svg version="1.1" id="Isolation_Mode" xmlns="http://www.w3.org/2000/svg" xmlns:xlink="http://www.w3.org/1999/xlink" x="0px"
	 y="0px" viewBox="0 0 40.3 38.8" style="enable-background:new 0 0 40.3 38.8;" xml:space="preserve">
<style type="text/css">
	.st0{fill:#FFFFFF;stroke:#FFFFFF;stroke-miterlimit:10;}
</style>
<g>
	<path class="st0" d="M34.3,1.7H6.1c-2,0-3.6,1.6-3.6,3.6v28.3c0,2,1.6,3.6,3.6,3.6h28.3c2,0,3.6-1.6,3.6-3.6V5.4
		C38,3.4,36.3,1.7,34.3,1.7z M6.1,2.8h28.3c1.4,0,2.5,1.1,2.5,2.5V19c-6.4,0.1-14.9,2.7-18.8,7.3c-3.8-2.9-8.9-5.6-14.5-5.9V5.4
		C3.5,4,4.7,2.8,6.1,2.8z M3.5,33.6V21.4c6.8,0.4,12.7,4.5,16.6,7.9c3.1,2.8,5.4,5.5,6.4,6.9H6.1C4.7,36.2,3.5,35,3.5,33.6z
		 M34.3,36.2h-6.5c-0.7-0.9-3.2-4.2-7-7.7c-0.6-0.5-1.2-1.1-1.9-1.6c1.7-1.9,4.4-3.6,7.8-4.9c3.2-1.2,6.9-1.9,10.1-2v13.6
		C36.9,35,35.7,36.2,34.3,36.2z"/>
	<path class="st0" d="M28.3,14.2c2,0,3.6-1.6,3.6-3.6c0-2-1.6-3.6-3.6-3.6c-2,0-3.6,1.6-3.6,3.6C24.7,12.5,26.3,14.2,28.3,14.2z
		 M28.3,8c1.4,0,2.6,1.1,2.6,2.6c0,1.4-1.1,2.6-2.6,2.6c-1.4,0-2.6-1.1-2.6-2.6C25.8,9.1,26.9,8,28.3,8z"/>
</g>
</svg>
