<?xml version="1.0" encoding="utf-8"?>
<!-- Generator: Adobe Illustrator 19.0.0, SVG Export Plug-In . SVG Version: 6.00 Build 0)  -->
<svg version="1.1" id="Layer_1" xmlns="http://www.w3.org/2000/svg" xmlns:xlink="http://www.w3.org/1999/xlink" x="0px" y="0px"
	 viewBox="0 0 53.4 53.4" style="enable-background:new 0 0 53.4 53.4;" xml:space="preserve">
<style type="text/css">
	.st0{clip-path:url(#SVGID_2_);fill:#fc671a;fill: #fc671a;}
	.st1{clip-path:url(#SVGID_2_);fill:none;stroke:#fc671a;stroke-width:0.5;stroke-miterlimit:10;fill: #fc671a;}
</style>
<g>
	<defs>
		<rect id="SVGID_1_" y="0" width="53.4" height="53.4"/>
	</defs>
	<clipPath id="SVGID_2_">
		<use xlink:href="#SVGID_1_"  style="overflow:visible;"/>
	</clipPath>
	<path class="st0" d="M26.7,0.2C12.1,0.2,0.3,12.1,0.3,26.7c0,14.6,11.9,26.5,26.5,26.5s26.5-11.9,26.5-26.5
		C53.2,12.1,41.3,0.2,26.7,0.2 M40.7,46l-2.9-4.4l-1.6,1.1l2.9,4.4c-3.3,2-7.2,3.3-11.4,3.4v-5.3h-1.9v5.3c-3.4-0.1-6.5-1-9.4-2.4
		l2.5-4.6l-1.7-0.9l-2.5,4.6c-2.8-1.7-5.3-3.9-7.2-6.6l4.4-2.9l-1.1-1.6l-4.4,2.9c-2-3.3-3.3-7.2-3.4-11.4h5.2v-1.9H2.9
		c0.1-3.4,1-6.5,2.4-9.4l4.6,2.5l0.9-1.7l-4.6-2.5c1.7-2.8,3.9-5.3,6.6-7.2l2.9,4.4l1.6-1.1l-2.9-4.4c3.4-2,7.2-3.3,11.4-3.4v5.3
		h1.9V2.9c3.4,0.1,6.5,1,9.4,2.4l-2.5,4.6l1.7,0.9l2.5-4.6c2.8,1.7,5.3,3.9,7.2,6.6l-4.4,2.9l1.1,1.6l4.4-2.9
		c2,3.4,3.3,7.2,3.4,11.4h-5.3v1.9h5.3c-0.1,3.4-1,6.5-2.4,9.4l-4.6-2.5l-0.9,1.7l4.6,2.5C45.6,41.6,43.3,44.1,40.7,46"/>
	<path class="st1" d="M26.7,0.2C12.1,0.2,0.3,12.1,0.3,26.7c0,14.6,11.9,26.5,26.5,26.5s26.5-11.9,26.5-26.5
		C53.2,12.1,41.3,0.2,26.7,0.2z M40.7,46l-2.9-4.4l-1.6,1.1l2.9,4.4c-3.3,2-7.2,3.3-11.4,3.4v-5.3h-1.9v5.3c-3.4-0.1-6.5-1-9.4-2.4
		l2.5-4.6l-1.7-0.9l-2.5,4.6c-2.8-1.7-5.3-3.9-7.2-6.6l4.4-2.9l-1.1-1.6l-4.4,2.9c-2-3.3-3.3-7.2-3.4-11.4h5.2v-1.9H2.9
		c0.1-3.4,1-6.5,2.4-9.4l4.6,2.5l0.9-1.7l-4.6-2.5c1.7-2.8,3.9-5.3,6.6-7.2l2.9,4.4l1.6-1.1l-2.9-4.4c3.4-2,7.2-3.3,11.4-3.4v5.3
		h1.9V2.9c3.4,0.1,6.5,1,9.4,2.4l-2.5,4.6l1.7,0.9l2.5-4.6c2.8,1.7,5.3,3.9,7.2,6.6l-4.4,2.9l1.1,1.6l4.4-2.9
		c2,3.4,3.3,7.2,3.4,11.4h-5.3v1.9h5.3c-0.1,3.4-1,6.5-2.4,9.4l-4.6-2.5l-0.9,1.7l4.6,2.5C45.6,41.6,43.3,44.1,40.7,46z"/>
	<polygon class="st0" points="26.9,27.8 18.4,19.7 16.6,21.6 26.6,31.1 35,25.7 33.6,23.5 	"/>
	<polygon class="st1" points="26.9,27.8 18.4,19.7 16.6,21.6 26.6,31.1 35,25.7 33.6,23.5 	"/>
</g>
</svg>
