<?xml version="1.0" encoding="utf-8"?>
<!-- Generator: Adobe Illustrator 19.0.0, SVG Export Plug-In . SVG Version: 6.00 Build 0)  -->
<svg version="1.1" id="Layer_6" xmlns="http://www.w3.org/2000/svg" xmlns:xlink="http://www.w3.org/1999/xlink" x="0px" y="0px"
	 viewBox="0 0 23.3 23.4" style="enable-background:new 0 0 23.3 23.4;" xml:space="preserve">
<style type="text/css">
	.st0{fill:#fff;stroke:#fff;stroke-width:0.1;stroke-miterlimit:10;}
</style>
<g>
	<g>
		<path class="st0" d="M21.5,6.7l-9.7-6.1c-0.1,0-0.2-0.1-0.3,0L1.9,6.7v0.1c0,0,0,0.1,0,0.1l0,0.1l0,0l0.1,0l0.1,0h1.4v1.8
			c0,0.1,0.1,0.3,0.3,0.3S4,9.1,4,8.9V6.8c0-0.1-0.1-0.2-0.2-0.2L3,6.6l8.7-5.5l8.7,5.5l-0.8,0c-0.1,0-0.2,0.1-0.2,0.2v2.1
			c0,0.1,0.1,0.3,0.3,0.3s0.3-0.1,0.3-0.3V7.1h1.4c0.1,0,0.3-0.1,0.3-0.3V6.7z"/>
	</g>
	<path class="st0" d="M2.3,23c0.1,0,0.2,0,0.4-0.1l0.1,0l0.1,0C3,22.9,3.1,23,3.2,23c0.6,0,1-0.5,1-1v-2.6l0.1-0.1
		c0.5-0.4,0.7-1,0.7-1.7v-1.8c0-0.9-0.5-1.7-1.4-2.1l-0.4-0.2l0.3-0.3C4,13,4.2,12.6,4.2,12.2c0-0.8-0.6-1.4-1.4-1.4
		s-1.4,0.6-1.4,1.4c0,0.4,0.2,0.9,0.6,1.1l0.3,0.3l-0.4,0.2c-0.8,0.4-1.4,1.2-1.4,2.1v1.8c0,0.6,0.3,1.2,0.7,1.7l0.1,0.1v2.6
		C1.3,22.5,1.7,23,2.3,23z M1.8,12.2c0-0.5,0.4-0.9,0.9-0.9s0.9,0.4,0.9,0.9s-0.4,0.9-0.9,0.9S1.8,12.7,1.8,12.2z M1,17.6v-1.8
		c0-1,0.8-1.8,1.8-1.8s1.8,0.8,1.8,1.8v1.8c0,0.6-0.3,1.1-0.7,1.4l-0.1,0.1v2.9c0,0.2-0.1,0.4-0.3,0.5c-0.2,0.1-0.4,0.1-0.5,0
		l-0.1-0.1l-0.1,0.1c-0.1,0.1-0.2,0.1-0.3,0.1c-0.1,0-0.2,0-0.3-0.1c-0.2-0.1-0.3-0.3-0.3-0.5v-2.9L1.7,19C1.2,18.6,1,18.1,1,17.6z"
		/>
	<path class="st0" d="M8.3,23c0.1,0,0.2,0,0.4-0.1l0.1,0l0.1,0C8.9,22.9,9,23,9.2,23c0.6,0,1-0.5,1-1v-2.6l0.1-0.1
		c0.5-0.4,0.7-1,0.7-1.7v-1.8c0-0.9-0.5-1.7-1.4-2.1l-0.4-0.2l0.3-0.3c0.4-0.3,0.6-0.7,0.6-1.1c0-0.8-0.6-1.4-1.4-1.4
		s-1.4,0.6-1.4,1.4c0,0.4,0.2,0.9,0.6,1.1l0.3,0.3l-0.4,0.2c-0.8,0.4-1.4,1.2-1.4,2.1v1.8c0,0.6,0.3,1.2,0.7,1.7l0.1,0.1v2.6
		C7.2,22.5,7.7,23,8.3,23z M7.8,12.2c0-0.5,0.4-0.9,0.9-0.9c0.5,0,0.9,0.4,0.9,0.9s-0.4,0.9-0.9,0.9C8.2,13.1,7.8,12.7,7.8,12.2z
		 M6.9,17.6v-1.8c0-1,0.8-1.8,1.8-1.8c1,0,1.8,0.8,1.8,1.8v1.8c0,0.6-0.3,1.1-0.7,1.4l-0.1,0.1v2.9c0,0.2-0.1,0.4-0.3,0.5
		c-0.2,0.1-0.4,0.1-0.5,0l-0.1-0.1l-0.1,0.1c-0.1,0.1-0.2,0.1-0.3,0.1c-0.1,0-0.2,0-0.3-0.1c-0.2-0.1-0.3-0.3-0.3-0.5v-2.9L7.6,19
		C7.2,18.7,6.9,18.1,6.9,17.6z"/>
	<path class="st0" d="M14.2,23c0.1,0,0.2,0,0.4-0.1l0.1,0l0.1,0c0.1,0,0.2,0.1,0.4,0.1c0.6,0,1-0.5,1-1v-2.6l0.1-0.1
		c0.5-0.4,0.7-1,0.7-1.7v-1.8c0-0.9-0.5-1.7-1.4-2.1l-0.4-0.2l0.3-0.3c0.4-0.3,0.6-0.7,0.6-1.1c0-0.8-0.6-1.4-1.4-1.4
		s-1.4,0.6-1.4,1.4c0,0.4,0.2,0.9,0.6,1.1l0.3,0.3l-0.4,0.2c-0.8,0.4-1.4,1.2-1.4,2.1v1.8c0,0.6,0.3,1.2,0.7,1.7l0.1,0.1v2.6
		C13.2,22.5,13.6,23,14.2,23z M13.7,12.2c0-0.5,0.4-0.9,0.9-0.9s0.9,0.4,0.9,0.9s-0.4,0.9-0.9,0.9S13.7,12.7,13.7,12.2z M12.9,17.6
		v-1.8c0-1,0.8-1.8,1.8-1.8s1.8,0.8,1.8,1.8v1.8c0,0.6-0.3,1.1-0.7,1.4l-0.1,0.1v2.9c0,0.2-0.1,0.4-0.3,0.5c-0.2,0.1-0.4,0.1-0.5,0
		l-0.1-0.1l-0.1,0.1c-0.1,0.1-0.2,0.1-0.3,0.1c-0.1,0-0.2,0-0.3-0.1c-0.2-0.1-0.3-0.3-0.3-0.5v-2.9L13.6,19
		C13.1,18.6,12.9,18.1,12.9,17.6z"/>
	<path class="st0" d="M20.1,23c0.1,0,0.2,0,0.4-0.1l0.1,0l0.1,0c0.1,0,0.2,0.1,0.4,0.1c0.6,0,1-0.5,1-1v-2.6l0.1-0.1
		c0.5-0.4,0.7-1,0.7-1.7v-1.8c0-0.9-0.5-1.7-1.4-2.1l-0.4-0.2l0.3-0.3c0.4-0.3,0.6-0.7,0.6-1.1c0-0.8-0.6-1.4-1.4-1.4
		s-1.4,0.6-1.4,1.4c0,0.4,0.2,0.9,0.6,1.1l0.3,0.3l-0.4,0.2c-0.8,0.4-1.4,1.2-1.4,2.1v1.8c0,0.6,0.3,1.2,0.7,1.7l0.1,0.1v2.6
		C19.1,22.5,19.6,23,20.1,23z M19.6,12.2c0-0.5,0.4-0.9,0.9-0.9c0.5,0,0.9,0.4,0.9,0.9s-0.4,0.9-0.9,0.9
		C20.1,13.1,19.6,12.7,19.6,12.2z M18.8,17.6v-1.8c0-1,0.8-1.8,1.8-1.8c1,0,1.8,0.8,1.8,1.8v1.8c0,0.6-0.3,1.1-0.7,1.4l-0.1,0.1v2.9
		c0,0.2-0.1,0.4-0.3,0.5c-0.2,0.1-0.4,0.1-0.5,0l-0.1-0.1l-0.1,0.1c-0.1,0.1-0.2,0.1-0.3,0.1c-0.1,0-0.2,0-0.3-0.1
		c-0.2-0.1-0.3-0.3-0.3-0.5v-2.9L19.5,19C19.1,18.7,18.8,18.1,18.8,17.6z"/>
</g>
</svg>
