<?xml version="1.0" encoding="utf-8"?>
<!-- Generator: Adobe Illustrator 19.0.0, SVG Export Plug-In . SVG Version: 6.00 Build 0)  -->
<svg version="1.1" id="Layer_1" xmlns="http://www.w3.org/2000/svg" xmlns:xlink="http://www.w3.org/1999/xlink" x="0px" y="0px"
	 viewBox="0 0 115.1 10.7" style="enable-background:new 0 0 115.1 10.7;" xml:space="preserve">
<style type="text/css">
	.st0{fill:#FF893D;}
	.st1{clip-path:url(#SVGID_2_);fill:#FF893D;}
</style>
<polygon class="st0" points="58.3,0.3 58.3,10.5 59.1,10.5 59.1,5.6 64.1,5.6 64.1,4.9 59.1,4.9 59.1,1.1 64.6,1.1 64.6,0.3 "/>
<polygon class="st0" points="95.9,0.3 93.1,9.5 90.4,0.3 89.3,0.3 86.5,9.5 83.8,0.3 82.9,0.3 86,10.5 87.1,10.5 89.8,1.2 
	92.6,10.5 93.6,10.5 96.7,0.3 "/>
<polygon class="st0" points="14.5,0.3 10.2,10.5 11.1,10.5 12.3,7.7 12.3,7.7 12.6,7 12.6,7 14.9,1.3 17.3,7 17.3,7 17.6,7.7 
	18.7,10.5 19.6,10.5 15.4,0.3 "/>
<rect x="39.1" y="0.3" class="st0" width="6.3" height="0.7"/>
<rect x="39.1" y="4.9" class="st0" width="6.3" height="0.7"/>
<rect x="39.1" y="9.8" class="st0" width="6.3" height="0.7"/>
<rect x="99.2" y="0.3" class="st0" width="6.3" height="0.7"/>
<rect x="99.2" y="4.9" class="st0" width="6.3" height="0.7"/>
<rect x="99.2" y="9.8" class="st0" width="6.3" height="0.7"/>
<g>
	<defs>
		<rect id="SVGID_1_" y="0" width="115.1" height="10.7"/>
	</defs>
	<clipPath id="SVGID_2_">
		<use xlink:href="#SVGID_1_"  style="overflow:visible;"/>
	</clipPath>
	<path class="st1" d="M52.6,6c0.6-0.1,1.1-0.4,1.5-0.8C54.8,4.7,55,4,55,3.2c0-0.8-0.3-1.5-0.9-2c-0.6-0.6-1.3-0.8-2.2-0.8h-3.4
		v10.2h0.8V6.1V5.4V2.2V1.1h2.4c0.7,0,1.3,0.2,1.7,0.6c0.4,0.4,0.7,0.9,0.7,1.5c0,0.6-0.2,1.1-0.7,1.5c-0.4,0.4-1,0.6-1.7,0.6h-0.5
		l3.1,5.1h1L52.6,6z"/>
	<path class="st1" d="M112.3,6c0.6-0.1,1.1-0.4,1.5-0.8c0.6-0.6,0.9-1.2,0.9-2.1c0-0.8-0.3-1.5-0.9-2c-0.6-0.6-1.3-0.8-2.2-0.8h-3.4
		v10.2h0.8V6.1V5.4V2.2V1.1h2.4c0.7,0,1.3,0.2,1.7,0.6c0.4,0.4,0.7,0.9,0.7,1.5c0,0.6-0.2,1.1-0.7,1.5c-0.4,0.4-1,0.6-1.7,0.6H111
		l3.1,5.1h1L112.3,6z"/>
	<path class="st1" d="M8,8C7.7,8.6,7.2,9.1,6.7,9.4C6.1,9.7,5.5,9.9,4.7,9.9c-1.1,0-2.1-0.4-2.8-1.2C1.2,7.8,0.9,6.8,0.9,5.4
		c0-1.3,0.4-2.4,1.1-3.2c0.7-0.8,1.6-1.2,2.8-1.2c0.7,0,1.4,0.2,1.9,0.5c0.6,0.3,1,0.8,1.4,1.4l0,0h0.9c0,0-0.1-0.2-0.2-0.3h0
		c0,0,0,0,0,0v0h0c-0.4-0.7-1-1.3-1.7-1.7C6.4,0.4,5.6,0.2,4.7,0.2c-1.4,0-2.5,0.5-3.4,1.5C0.4,2.6,0,3.9,0,5.4
		c0,1.5,0.4,2.8,1.3,3.8c0.9,1,2,1.5,3.4,1.5c0.9,0,1.6-0.2,2.3-0.6c0.7-0.4,1.3-1,1.7-1.7C8.8,8.2,8.9,8,8.9,8H8z"/>
	<path class="st1" d="M35.3,1.8c-1-1-2.3-1.4-3.8-1.4h-3.1v8.7h0.8v-8h2.2c1.3,0,2.3,0.4,3.2,1.2C35.5,3.1,36,4.2,36,5.4
		c0,1.2-0.4,2.3-1.3,3.1c-0.9,0.8-1.9,1.3-3.2,1.3h-1.9h-0.2h-3.8h-2.8V6.4v-6h-0.8v9.4v0.7h0.8h5.8h3.1c1.5,0,2.8-0.5,3.8-1.4
		c1-1,1.5-2.2,1.5-3.7C36.8,3.9,36.3,2.7,35.3,1.8"/>
	<path class="st1" d="M80.3,1.5c-0.9-1-2-1.5-3.4-1.5c-1.4,0-2.5,0.5-3.4,1.5c-0.9,1-1.4,2.2-1.4,3.8c0,1.5,0.4,2.8,1.4,3.8
		c0,0,0,0,0.1,0.1h1.2c-0.2-0.2-0.4-0.4-0.6-0.6c-0.7-0.8-1.1-1.9-1.1-3.2c0-1.3,0.4-2.4,1.1-3.2c0.7-0.9,1.7-1.3,2.8-1.3
		c1.2,0,2.1,0.4,2.8,1.2c0.7,0.8,1.1,1.9,1.1,3.2s-0.4,2.4-1.1,3.2c-0.5,0.6-1,0.9-1.7,1.1v0c-0.1,0-0.2,0-0.2,0.1c0,0,0,0-0.1,0
		c-0.4,0.1-0.9,0.1-1.2,0.1h-0.9h-1.2H73h-2.4h-2.6V6.4v-6h-0.8v10.2h0.8v0h8.8c0,0,0,0,0,0H77c0.1,0,0.3,0,0.5,0
		c1.1-0.1,2.1-0.6,2.8-1.5c0.9-1,1.3-2.2,1.3-3.8C81.7,3.7,81.2,2.5,80.3,1.5"/>
</g>
</svg>
