<?xml version="1.0" encoding="utf-8"?>
<!-- Generator: Adobe Illustrator 19.0.0, SVG Export Plug-In . SVG Version: 6.00 Build 0)  -->
<svg version="1.1" id="Layer_1" xmlns="http://www.w3.org/2000/svg" xmlns:xlink="http://www.w3.org/1999/xlink" x="0px" y="0px"
	 viewBox="0 0 64 64" style="enable-background:new 0 0 64 64;" xml:space="preserve">
<style type="text/css">
	
		.st0{clip-path:url(#SVGID_2_);fill:none;stroke:#fff;stroke-width:2;stroke-linecap:round;stroke-linejoin:round;stroke-miterlimit:10;}
	
		.st1{clip-path:url(#SVGID_2_);fill:none;stroke:#fff;stroke-width:2;stroke-linecap:square;stroke-linejoin:round;stroke-miterlimit:10;}
	.st2{clip-path:url(#SVGID_2_);fill:none;stroke:#fff;stroke-width:2;stroke-linejoin:round;stroke-miterlimit:10;}
</style>
<g>
	<defs>
		<rect id="SVGID_1_" width="64" height="64"/>
	</defs>
	<clipPath id="SVGID_2_">
		<use xlink:href="#SVGID_1_"  style="overflow:visible;"/>
	</clipPath>
	<path class="st0" d="M52,57.5c0-3,2.5-5.5,5.5-5.5c3,0,5.5,2.5,5.5,5.5S60.5,63,57.5,63"/>
	<path class="st1" d="M52,6.5c0-3,2.5-5.5,5.5-5.5c3,0,5.5,2.5,5.5,5.5"/>
	<line class="st2" x1="63" y1="6" x2="63" y2="57"/>
	<polyline class="st2" points="58,63 1,63 1,7 52,7 52,57 	"/>
	<polyline class="st2" points="39,51 46,51 46,24 27,24 27,31 7,31 7,57 27,57 27,51 35,51 	"/>
	<line class="st2" x1="27" y1="43" x2="27" y2="51"/>
	<line class="st2" x1="32" y1="38" x2="45" y2="38"/>
	<line class="st2" x1="8" y1="44" x2="22" y2="44"/>
	<line class="st2" x1="27" y1="31" x2="27" y2="39"/>
	<line class="st2" x1="49" y1="18" x2="5" y2="18"/>
	<line class="st2" x1="9" y1="13" x2="9" y2="17"/>
	<line class="st2" x1="15" y1="15" x2="15" y2="17"/>
	<line class="st2" x1="21" y1="13" x2="21" y2="17"/>
	<line class="st2" x1="27" y1="15" x2="27" y2="17"/>
	<line class="st2" x1="39" y1="15" x2="39" y2="17"/>
	<line class="st2" x1="33" y1="13" x2="33" y2="17"/>
	<line class="st2" x1="45" y1="13" x2="45" y2="17"/>
</g>
</svg>
