<?xml version="1.0" encoding="utf-8"?>
<!-- Generator: Adobe Illustrator 19.0.0, SVG Export Plug-In . SVG Version: 6.00 Build 0)  -->
<svg version="1.1" id="Layer_1" xmlns="http://www.w3.org/2000/svg" xmlns:xlink="http://www.w3.org/1999/xlink" x="0px" y="0px"
	 viewBox="0 0 128.7 131.3" style="enable-background:new 0 0 128.7 131.3;" xml:space="preserve">
<style type="text/css">
	.st0{fill:#FFFFFF;stroke:#FFFFFF;stroke-miterlimit:10;}
</style>
<g>
	<path class="st0" d="M72.8,78.5L23.3,47.3c-1-0.6-2.3-0.3-3,0.7c-0.6,1-0.3,2.3,0.7,3l49.6,31.2c0.4,0.2,0.8,0.3,1.1,0.3
		c0.7,0,1.4-0.4,1.8-1C74.1,80.5,73.8,79.1,72.8,78.5z"/>
	<path class="st0" d="M67.8,88.9L18.2,57.7c-1-0.6-2.3-0.3-3,0.7c-0.6,1-0.3,2.3,0.7,3l49.6,31.2c0.4,0.2,0.8,0.3,1.1,0.3
		c0.7,0,1.4-0.4,1.8-1C69.1,90.8,68.8,89.5,67.8,88.9z"/>
	<path class="st0" d="M76.6,51.3l20.9,13.1c0.4,0.2,0.7,0.3,1.1,0.3c0.7,0,1.4-0.4,1.8-1c0.6-1,0.3-2.3-0.7-3L78.8,47.6
		c-1-0.6-2.3-0.3-3,0.7C75.2,49.3,75.5,50.6,76.6,51.3z"/>
	<path class="st0" d="M91.2,66.5L70.1,53.3c-1-0.6-2.3-0.3-3,0.7c-0.6,1-0.3,2.3,0.7,3l21.1,13.2c0.4,0.2,0.7,0.3,1.1,0.3
		c0.7,0,1.4-0.4,1.8-1C92.5,68.4,92.2,67.1,91.2,66.5z"/>
	<path class="st0" d="M29.8,44.4l20.9,13.1c0.4,0.2,0.9,0.3,1.3,0.3c0.1,0,0.1,0,0.2,0c0.4,0,0.8-0.1,1.2-0.3l17.5-11.2
		c0.6-0.4,1-1.1,1-1.8c0,0,0,0,0,0c0,0,0,0,0-0.1c0-0.7-0.4-1.4-1-1.8L49.9,29.5c-0.4-0.2-0.9-0.3-1.3-0.3c-0.1,0-0.1,0-0.2,0
		c-0.4,0-0.8,0.1-1.2,0.3L29.8,40.7c-0.6,0.4-1,1.1-1,1.8c0,0,0,0,0,0c0,0,0,0,0,0.1C28.8,43.4,29.1,44,29.8,44.4z M48.6,33.9
		l17,10.6L52,53.1L35,42.5L48.6,33.9z"/>
	<path class="st0" d="M82.6,72.1L61.4,58.9c-1-0.6-2.3-0.3-3,0.7c-0.6,1-0.3,2.3,0.7,3l21.3,13.2c0.4,0.2,0.7,0.3,1.1,0.3
		c0.7,0,1.4-0.4,1.8-1C83.9,74.1,83.6,72.8,82.6,72.1z"/>
	<path class="st0" d="M124.3,76.7C124.3,76.7,124.3,76.7,124.3,76.7l-7.8-4.9l7.9-4.9c0.6-0.4,1-1.1,1-1.8c0-0.7-0.4-1.4-1-1.8
		L47.9,15.1c-0.7-0.4-1.6-0.4-2.3,0L12.4,36C6.7,39.6,2.2,47.8,2.2,54.5v1.1c0,6.8,4.5,14.9,10.2,18.5c0,0,63.1,40.2,64.3,40.9
		c1,0.6,2.2,0.8,3.3,0.8c1.8,0,3.7-0.6,5.7-1.9l34.9-22c3.3-2.1,5.8-6.7,5.8-10.6C126.4,79.3,125.6,77.7,124.3,76.7z M72.7,107
		l-58-36.5c-4.4-2.8-8.2-9.6-8.2-14.8v-1.1c0-5.2,3.8-12,8.2-14.8l32.1-20.2L119.1,65L83.4,87.5c-6,3.8-10.7,12.3-10.7,19.3
		C72.7,106.9,72.7,107,72.7,107z M118.3,88.4l-34.9,22c-1.9,1.2-3.6,1.5-4.7,0.9c-1.1-0.6-1.7-2.2-1.7-4.4c0-5.6,4-12.8,8.7-15.7
		l26.8-16.8l5,3.2L82.3,99.6c-1,0.6-1.3,2-0.7,3c0.6,1,2,1.3,3,0.7l36-22.7c0.8-0.5,1.2-0.4,1.2-0.4c0.1,0,0.3,0.4,0.3,1.3
		C122.1,83.8,120.3,87.1,118.3,88.4z"/>
</g>
</svg>
