<?xml version="1.0" encoding="utf-8"?>
<!-- Generator: Adobe Illustrator 19.0.0, SVG Export Plug-In . SVG Version: 6.00 Build 0)  -->
<svg version="1.1" id="Layer_1" xmlns="http://www.w3.org/2000/svg" xmlns:xlink="http://www.w3.org/1999/xlink" x="0px" y="0px"
	 viewBox="0 0 113.3 77.5" style="enable-background:new 0 0 113.3 77.5;" xml:space="preserve">
<style type="text/css">
	.st0{stroke:#fc671a;stroke-miterlimit:10;fill: #fc671a;}
</style>
<g>
	<path class="st0" d="M101.2,35.3h-89c-0.8,0-1.5-0.7-1.5-1.5V8.7c0-4,3.2-7.2,7.2-7.2h77.7c4,0,7.2,3.2,7.2,7.2v25.1
		C102.7,34.6,102.1,35.3,101.2,35.3z M13.7,32.3h86V8.7c0-2.3-1.9-4.2-4.2-4.2H17.9c-2.3,0-4.2,1.9-4.2,4.2V32.3z"/>
	<path class="st0" d="M110.7,58.9H2.8c-0.8,0-1.5-0.7-1.5-1.5V39.5c0-4,3.2-7.2,7.2-7.2H105c4,0,7.2,3.2,7.2,7.2v17.9
		C112.2,58.2,111.5,58.9,110.7,58.9z M4.3,55.9h105V39.5c0-2.3-1.9-4.2-4.2-4.2H8.4c-2.3,0-4.2,1.9-4.2,4.2V55.9z"/>
	<path class="st0" d="M50.4,35.3H20.7c-0.8,0-1.5-0.7-1.5-1.5V20.5c0-2.5,2-4.5,4.5-4.5h23.7c2.5,0,4.5,2,4.5,4.5v13.3
		C51.9,34.6,51.2,35.3,50.4,35.3z M22.2,32.3h26.7V20.5c0-0.8-0.7-1.5-1.5-1.5H23.8c-0.8,0-1.5,0.7-1.5,1.5V32.3z"/>
	<path class="st0" d="M92.7,35.3H63c-0.8,0-1.5-0.7-1.5-1.5V20.5c0-2.5,2-4.5,4.5-4.5h23.7c2.5,0,4.5,2,4.5,4.5v13.3
		C94.2,34.6,93.5,35.3,92.7,35.3z M64.5,32.3h26.7V20.5c0-0.8-0.7-1.5-1.5-1.5H66.1c-0.8,0-1.5,0.7-1.5,1.5V32.3z"/>
	<path class="st0" d="M12.2,76.2H2.8c-0.8,0-1.5-0.7-1.5-1.5V57.4c0-0.8,0.7-1.5,1.5-1.5h9.5c0.8,0,1.5,0.7,1.5,1.5v17.4
		C13.7,75.5,13.1,76.2,12.2,76.2z M4.3,73.2h6.5V58.9H4.3V73.2z"/>
	<path class="st0" d="M110.7,76.2h-9.5c-0.8,0-1.5-0.7-1.5-1.5V57.4c0-0.8,0.7-1.5,1.5-1.5h9.5c0.8,0,1.5,0.7,1.5,1.5v17.4
		C112.2,75.5,111.6,76.2,110.7,76.2z M102.7,73.2h6.5V58.9h-6.5V73.2z"/>
</g>
</svg>
